{"accessors" : [{"bufferView" : 0, "byteOffset" : 0, "componentType" : 5123, "count" : 156, "type" : "SCALAR", "max" : [155], "min" : [0]}, {"bufferView" : 1, "byteOffset" : 0, "componentType" : 5126, "count" : 156, "type" : "VEC3", "max" : [102.44583129882812, 91.60231018066406, 211.5099334716797], "min" : [-102.44583129882812, -29.160648345947266, -219.80162048339844], "name" : "POSITION"}, {"bufferView" : 1, "byteOffset" : 12, "componentType" : 5126, "count" : 156, "type" : "VEC3", "max" : [1.0000044107437134, 1.0000044107437134, 1.0000044107437134], "min" : [-1.0000044107437134, -1.0000044107437134, -1.0000044107437134], "name" : "NORMAL"}, {"bufferView" : 1, "byteOffset" : 24, "componentType" : 5126, "count" : 156, "type" : "VEC2", "max" : [0.875, 2], "min" : [0.125, 1], "name" : "TEXCOORD_0"}, {"bufferView" : 0, "byteOffset" : 312, "componentType" : 5123, "count" : 246, "type" : "SCALAR", "max" : [245], "min" : [0]}, {"bufferView" : 2, "byteOffset" : 0, "componentType" : 5126, "count" : 246, "type" : "VEC3", "max" : [232.7779083251953, 128.67344665527344, 71.4676513671875], "min" : [-232.7779083251953, -111.47940826416016, -216.25477600097656], "name" : "POSITION"}, {"bufferView" : 2, "byteOffset" : 12, "componentType" : 5126, "count" : 246, "type" : "VEC3", "max" : [1.0000044107437134, 1.0000044107437134, 1], "min" : [-1.0000044107437134, -0.9165838360786438, -1.0000044107437134], "name" : "NORMAL"}, {"bufferView" : 2, "byteOffset" : 24, "componentType" : 5126, "count" : 246, "type" : "VEC2", "max" : [0.875, 2], "min" : [0.125, 1], "name" : "TEXCOORD_0"}, {"bufferView" : 0, "byteOffset" : 804, "componentType" : 5123, "count" : 324, "type" : "SCALAR", "max" : [322], "min" : [0]}, {"bufferView" : 3, "byteOffset" : 0, "componentType" : 5126, "count" : 323, "type" : "VEC3", "max" : [214.0650177001953, 107.04239654541016, 365.97747802734375], "min" : [-214.0650177001953, -98.89793395996094, -267.7833557128906], "name" : "POSITION"}, {"bufferView" : 3, "byteOffset" : 12, "componentType" : 5126, "count" : 323, "type" : "VEC3", "max" : [1.0000044107437134, 0.9973989129066467, 0.9999972581863403], "min" : [-1.0000044107437134, -0.9999194741249084, -1.0000044107437134], "name" : "NORMAL"}, {"bufferView" : 3, "byteOffset" : 24, "componentType" : 5126, "count" : 323, "type" : "VEC2", "max" : [0.875, 2], "min" : [0.125, 1], "name" : "TEXCOORD_0"}], "asset" : {"generator" : "Aspose.3D 24.1.0", "version" : "2.0"}, "buffers" : [{"uri" : "data:application/octet-stream;base64,", "byteLength" : 24700}], "bufferViews" : [{"buffer" : 0, "byteOffset" : 0, "byteLength" : 1452, "target" : 34963}, {"buffer" : 0, "byteOffset" : 1456, "byteLength" : 4992, "byteStride" : 32, "target" : 34962}, {"buffer" : 0, "byteOffset" : 6452, "byteLength" : 7872, "byteStride" : 32, "target" : 34962}, {"buffer" : 0, "byteOffset" : 14328, "byteLength" : 10368, "byteStride" : 32, "target" : 34962}], "materials" : [{"name" : "lambert4SG", "pbrMetallicRoughness" : {"baseColorFactor" : [0.07, 0.07, 0.07, 1], "metallicFactor" : 0, "roughnessFactor" : 1}, "emissiveFactor" : [0, 0, 0], "alphaMode" : "OPAQUE", "doubleSided" : false}, {"name" : "lambert3SG", "pbrMetallicRoughness" : {"baseColorFactor" : [0.33, 0.04, 0.04, 1], "metallicFactor" : 0, "roughnessFactor" : 1}, "emissiveFactor" : [0, 0, 0], "alphaMode" : "OPAQUE", "doubleSided" : false}, {"name" : "lambert2SG", "pbrMetallicRoughness" : {"baseColorFactor" : [0.4, 0.4, 0.4, 1], "metallicFactor" : 0, "roughnessFactor" : 1}, "emissiveFactor" : [0, 0, 0], "alphaMode" : "OPAQUE", "doubleSided" : false}], "meshes" : [{"primitives" : [{"attributes" : {"POSITION" : 1, "NORMAL" : 2, "TEXCOORD_0" : 3}, "indices" : 0, "material" : 0, "mode" : 4}, {"attributes" : {"POSITION" : 5, "NORMAL" : 6, "TEXCOORD_0" : 7}, "indices" : 4, "material" : 1, "mode" : 4}, {"attributes" : {"POSITION" : 9, "NORMAL" : 10, "TEXCOORD_0" : 11}, "indices" : 8, "material" : 2, "mode" : 4}]}], "nodes" : [{"mesh" : 0, "name" : "Lo_poly_Spaceship_05_by_Liz_Reddington"}], "scene" : 0, "scenes" : [{"nodes" : [0]}]}